#N canvas 0 22 450 300 10;
#X obj 90 47 loadbang;
#X obj 95 74 pack \$2 \$1;
#X obj 95 95 -;
#X obj 66 154 / 100;
#X obj 58 135 random;
#X obj 58 183 + \$1;
#X obj 32 61 inlet;
#X obj 58 204 outlet;
#X obj 95 116 * 100;
#X connect 0 0 1 0;
#X connect 1 0 2 0;
#X connect 2 0 8 0;
#X connect 3 0 5 0;
#X connect 4 0 3 0;
#X connect 5 0 7 0;
#X connect 6 0 4 0;
#X connect 8 0 4 1;
