#N canvas 189 235 759 587 12;
#X obj 25 14 inlet;
#X obj 25 75 makefilename d-%d;
#X obj 25 99 t b a a, f 17;
#X obj 25 123 array size;
#X obj 191 132 r pd-dsp-started;
#X obj 191 156 samplerate~;
#X obj 191 180 / 1000;
#X obj 25 177 /;
#X msg 25 201 0 \, 1 \$1;
#X obj 25 225 line~;
#X obj 25 249 *~;
#X obj 25 273 +~ 1;
#X msg 114 247 set \$1;
#X obj 25 306 tabread4~;
#X obj 26 340 *~;
#X obj 562 263 fd_switch;
#X obj 572 125 inlet;
#X obj 633 305 switch~;
#X obj 25 150 t f f f;
#X obj 401 53 inlet;
#X obj 208 244 del 1 1 samp;
#X obj 629 534 outlet;
#X obj 25 44 f \$1;
#X obj 359 211 _pan4;
#X obj 230 343 unpack f f f f;
#X obj 33 432 *~;
#X obj 87 404 _line~ 10;
#X obj 160 442 *~;
#X obj 214 414 _line~ 10;
#X obj 279 443 *~;
#X obj 333 415 _line~ 10;
#X obj 412 441 *~;
#X obj 466 413 _line~ 10;
#X floatatom 226 372 5 0 0 0 - - -;
#X floatatom 267 372 5 0 0 0 - - -;
#X floatatom 308 375 5 0 0 0 - - -;
#X floatatom 348 375 5 0 0 0 - - -;
#X obj 28 482 throw~ dacout-4;
#X obj 414 490 throw~ dacout-3;
#X obj 268 489 throw~ dacout-2;
#X obj 143 484 throw~ dacout-1;
#X connect 0 0 22 0;
#X connect 1 0 2 0;
#X connect 2 0 3 0;
#X connect 2 1 3 1;
#X connect 2 2 12 0;
#X connect 3 0 18 0;
#X connect 4 0 5 0;
#X connect 5 0 6 0;
#X connect 6 0 7 1;
#X connect 7 0 8 0;
#X connect 8 0 9 0;
#X connect 9 0 10 0;
#X connect 10 0 11 0;
#X connect 11 0 13 0;
#X connect 12 0 13 0;
#X connect 13 0 14 0;
#X connect 14 0 25 0;
#X connect 14 0 27 0;
#X connect 14 0 31 0;
#X connect 14 0 29 0;
#X connect 15 0 14 1;
#X connect 15 1 17 0;
#X connect 16 0 15 0;
#X connect 18 0 7 0;
#X connect 18 1 10 1;
#X connect 18 2 20 0;
#X connect 19 0 23 0;
#X connect 20 0 21 0;
#X connect 22 0 1 0;
#X connect 23 0 24 0;
#X connect 24 0 26 0;
#X connect 24 0 33 0;
#X connect 24 1 28 0;
#X connect 24 1 34 0;
#X connect 24 2 30 0;
#X connect 24 2 35 0;
#X connect 24 3 32 0;
#X connect 24 3 36 0;
#X connect 25 0 37 0;
#X connect 26 0 25 1;
#X connect 27 0 40 0;
#X connect 28 0 27 1;
#X connect 29 0 39 0;
#X connect 30 0 29 1;
#X connect 31 0 38 0;
#X connect 32 0 31 1;
