#N canvas 1090 170 591 619 10;
#X obj 31 9 inlet;
#X obj 234 19 inlet;
#X obj 51 292 line~;
#X obj 93 355 *~;
#X msg 153 217 0 \, 1 \$1;
#X obj 153 238 line~;
#X obj 153 259 *~ 2048;
#X obj 153 280 +~ 1;
#X obj 20 230 * 0.9;
#X obj 51 313 tabosc4~ 0-gau;
#X obj 153 301 tabread4~ 0-poi;
#X obj 153 322 lop~ 2;
#X obj 16 271 pack;
#X obj 168 189 t f b;
#X obj 66 187 loadbang;
#X obj 392 46 unpack s s;
#X msg 392 67 set \$1;
#X msg 421 98 set \$1;
#X obj 14 84 f \$1;
#X obj 14 105 * 0.5;
#X obj 13 187 t f f;
#X obj 14 147 mtof;
#X obj 14 126 + 77;
#X obj 162 444 r gaviotamp;
#X obj 162 465 pack f 10;
#X obj 162 486 line~;
#X obj 117 500 *~;
#X obj 191 360 r gaviohp;
#X obj 188 396 r gaviolp;
#X obj 93 416 lop~ 2500;
#X obj 93 439 lop~ 2500;
#X obj 93 375 hip~ 18000;
#X obj 93 397 hip~ 18000;
#X obj 52 119 r gaviobase;
#X obj 29 54 t b f;
#X obj 337 218 r gaviolpmax;
#X obj 406 241 loadbang;
#X obj 55 212 _crand 0.6 0.9;
#X obj 68 234 _crand 30 200;
#X obj 406 262 _crand 1 3;
#X obj 393 25 r gaviotab;
#X obj 124 564 _spat 1;
#X obj 178 564 _spat 2;
#X obj 235 561 _spat 3;
#X obj 296 559 _spat 4;
#X obj 274 501 route 1 2 3 4;
#X connect 0 0 34 0;
#X connect 1 0 45 0;
#X connect 2 0 9 0;
#X connect 3 0 31 0;
#X connect 4 0 5 0;
#X connect 5 0 6 0;
#X connect 6 0 7 0;
#X connect 7 0 10 0;
#X connect 8 0 12 0;
#X connect 9 0 3 0;
#X connect 10 0 11 0;
#X connect 11 0 3 1;
#X connect 12 0 2 0;
#X connect 13 0 4 0;
#X connect 14 0 37 0;
#X connect 14 0 38 0;
#X connect 15 0 16 0;
#X connect 15 1 17 0;
#X connect 16 0 9 0;
#X connect 17 0 10 0;
#X connect 18 0 19 0;
#X connect 19 0 22 0;
#X connect 20 0 8 0;
#X connect 20 1 2 0;
#X connect 21 0 20 0;
#X connect 22 0 21 0;
#X connect 23 0 24 0;
#X connect 24 0 25 0;
#X connect 25 0 26 1;
#X connect 26 0 41 0;
#X connect 26 0 44 0;
#X connect 26 0 43 0;
#X connect 26 0 42 0;
#X connect 27 0 31 1;
#X connect 27 0 32 1;
#X connect 28 0 29 1;
#X connect 28 0 30 1;
#X connect 29 0 30 0;
#X connect 30 0 26 0;
#X connect 31 0 32 0;
#X connect 32 0 29 0;
#X connect 33 0 22 1;
#X connect 34 0 18 0;
#X connect 34 1 13 0;
#X connect 35 0 11 1;
#X connect 36 0 39 0;
#X connect 37 0 8 1;
#X connect 38 0 12 1;
#X connect 39 0 11 1;
#X connect 40 0 15 0;
#X connect 45 0 41 1;
#X connect 45 1 42 1;
#X connect 45 2 43 1;
#X connect 45 3 44 1;
