#N canvas 0 23 450 300 10;
#X obj 57 27 inlet~;
#X obj 57 194 *~;
#X obj 101 178 *~;
#X obj 101 27 inlet~;
#X obj 149 117 lop~ 100;
#X obj 174 24 loadbang;
#X obj 149 69 _crand 0 0.3;
#X obj 149 96 tabosc4~ 0-arc;
#X obj 57 237 throw~ \$2-\$1;
#X obj 57 215 *~;
#X obj 245 164 r g_cloudamp;
#X obj 244 184 * 127;
#X obj 244 204 dbtorms;
#X obj 244 224 pack f 10;
#X obj 244 244 line~;
#X connect 0 0 1 0;
#X connect 1 0 9 0;
#X connect 2 0 1 1;
#X connect 3 0 2 0;
#X connect 4 0 2 1;
#X connect 5 0 6 0;
#X connect 6 0 7 0;
#X connect 7 0 4 0;
#X connect 9 0 8 0;
#X connect 10 0 11 0;
#X connect 11 0 12 0;
#X connect 12 0 13 0;
#X connect 13 0 14 0;
#X connect 14 0 9 1;
