#N canvas 0 22 450 300 10;
#X obj 57 27 inlet~;
#X obj 57 194 *~;
#X obj 101 178 *~;
#X obj 101 27 inlet~;
#X obj 149 117 lop~ 100;
#X obj 174 24 loadbang;
#X obj 247 84 f \$1;
#X obj 247 105 mod 4;
#X obj 247 126 + 1;
#X msg 247 147 set dacout-\$1;
#X obj 57 237 throw~;
#X obj 149 69 _crand 0 0.3;
#X obj 149 96 tabosc4~ 0-arc;
#X connect 0 0 1 0;
#X connect 1 0 10 0;
#X connect 2 0 1 1;
#X connect 3 0 2 0;
#X connect 4 0 2 1;
#X connect 5 0 6 0;
#X connect 5 0 11 0;
#X connect 6 0 7 0;
#X connect 7 0 8 0;
#X connect 8 0 9 0;
#X connect 9 0 10 0;
#X connect 11 0 12 0;
#X connect 12 0 4 0;
