#N canvas 530 52 628 406 12;
#X obj 157 28 loadbang;
#X obj 222 65 metro 300;
#X obj 222 88 f;
#X obj 222 111 + 1;
#X obj 222 134 mod 4;
#X obj 316 272 *~;
#X obj 316 295 dac~ 1;
#X obj 397 174 + 60;
#X obj 397 197 mtof~;
#X obj 397 220 osc~;
#X obj 397 243 *~ 0.1;
#X obj 357 79 bng 15 250 50 0 empty empty empty 17 7 0 10 -262144 -1
-1;
#X obj 410 55 nbx 5 14 -1e+37 1e+37 0 0 empty empty empty 0 -8 0 10
-262144 -1 -1 0 256;
#X obj 343 108 t f f;
#X obj 316 249 vline~;
#X msg 260 226 0 \, 1 10 \, 0 200 10;
#X obj 316 202 t b a;
#X msg 459 134 set \$1;
#X obj 472 83 sel 3 4;
#X msg 423 109 5;
#X msg 499 105 6;
#X msg 343 131 set \$1;
#X connect 1 0 2 0;
#X connect 2 0 3 0;
#X connect 3 0 4 0;
#X connect 3 0 13 0;
#X connect 4 0 2 1;
#X connect 5 0 6 0;
#X connect 7 0 8 0;
#X connect 8 0 9 0;
#X connect 9 0 10 0;
#X connect 10 0 5 1;
#X connect 11 0 1 0;
#X connect 13 0 21 0;
#X connect 13 1 7 0;
#X connect 14 0 5 0;
#X connect 15 0 14 0;
#X connect 16 0 15 0;
#X connect 16 1 6 0;
#X connect 18 0 19 0;
#X connect 18 1 20 0;
#X connect 18 2 17 0;
#X connect 19 0 17 0;
#X connect 20 0 17 0;
#X connect 21 0 16 0;
