#N canvas 687 206 956 833 12;
#X obj 53 9 inlet;
#X obj 53 253 line~;
#X obj 53 303 tabosc4~;
#X obj 53 365 *~;
#X obj 53 146 unpack;
#X msg 183 208 0 \, 1 \$1;
#X obj 183 234 line~;
#X obj 183 260 *~ 2048;
#X obj 183 286 +~ 1;
#X obj 183 316 tabread4~;
#X obj 183 159 t f f b;
#X msg 704 269 1;
#X obj 53 116 spigot 1;
#X obj 689 533 fd_switch;
#X obj 749 599 switch~;
#X obj 53 554 *~;
#X obj 53 724 throw~;
#X obj 103 579 loadbang;
#X obj 103 608 f \$1;
#X obj 103 660 + 1;
#X obj 726 382 del;
#X msg 731 416 0;
#X obj 749 566 t f f;
#X obj 781 95 == 0;
#X obj 340 9 inlet;
#X obj 340 76 unpack s s;
#X msg 340 144 set \$1;
#X msg 407 145 set \$1;
#X obj 183 344 lop~ 100;
#X obj 53 218 pack f 10;
#X obj 53 400 lop~ 2000;
#X obj 53 437 hip~ 1800;
#X obj 337 323 r grainlp;
#X obj 608 164 r watervol;
#X obj 548 398 pack f 10;
#X obj 548 466 line~;
#X obj 53 487 *~;
#X obj 548 9 inlet;
#X obj 103 634 mod \$2;
#X msg 103 690 set water-\$1;
#X connect 0 0 12 0;
#X connect 1 0 2 0;
#X connect 2 0 3 0;
#X connect 3 0 30 0;
#X connect 4 0 29 0;
#X connect 4 1 10 0;
#X connect 5 0 6 0;
#X connect 6 0 7 0;
#X connect 7 0 8 0;
#X connect 8 0 9 0;
#X connect 9 0 28 0;
#X connect 10 0 5 0;
#X connect 10 1 20 0;
#X connect 10 2 11 0;
#X connect 11 0 13 0;
#X connect 12 0 4 0;
#X connect 13 0 15 1;
#X connect 13 1 22 0;
#X connect 15 0 16 0;
#X connect 17 0 18 0;
#X connect 18 0 38 0;
#X connect 19 0 39 0;
#X connect 20 0 21 0;
#X connect 21 0 13 0;
#X connect 22 0 14 0;
#X connect 22 1 23 0;
#X connect 23 0 12 1;
#X connect 24 0 25 0;
#X connect 25 0 26 0;
#X connect 25 1 27 0;
#X connect 26 0 2 0;
#X connect 27 0 9 0;
#X connect 28 0 3 1;
#X connect 29 0 1 0;
#X connect 30 0 31 0;
#X connect 31 0 36 0;
#X connect 32 0 28 1;
#X connect 34 0 35 0;
#X connect 35 0 36 1;
#X connect 36 0 15 0;
#X connect 37 0 34 0;
#X connect 38 0 19 0;
#X connect 39 0 16 0;
