#N canvas 0 22 1196 668 12;
#X floatatom 80 66 5 0 0 0 - - -;
#X obj 80 91 clip -1 1;
#X floatatom 258 68 5 0 0 0 - - -;
#X obj 258 93 clip -1 1;
#X obj 80 117 + 1;
#X obj 80 143 * 0.5;
#X obj 258 119 + 1;
#X obj 258 145 * 0.5;
#X obj 109 435 pack f 10;
#X obj 109 461 line~;
#X obj 91 498 *~;
#X obj 258 201 sel 1;
#X msg 571 166 3.14159;
#X obj 571 192 / 2;
#X msg 571 218 set \$1;
#X msg 570 77 6.28319;
#X obj 570 103 / 2;
#X msg 570 129 set \$1 \, bang;
#X msg 571 244 1.5708;
#X obj 290 228 * 1.5708;
#X obj 290 254 cos;
#X obj 258 173 t f f;
#X obj 360 228 * 1.5708;
#X obj 360 254 sin;
#X text 389 254 front;
#X text 315 254 back;
#X obj 77 195 sel 1;
#X obj 109 227 * 1.5708;
#X obj 109 253 cos;
#X msg 77 226 0;
#X msg 258 227 0;
#X text 142 333 Lback;
#X text 378 333 Lfront;
#X obj 290 280 t f f;
#X obj 360 280 t f f;
#X obj 109 282 t f f;
#X obj 109 334 *;
#X obj 342 334 *;
#X obj 176 228 * 1.5708;
#X obj 176 254 sin;
#X obj 176 280 t f f;
#X obj 374 374 *;
#X text 402 373 Rfront;
#X obj 176 374 *;
#X text 208 373 Rback;
#X obj 179 435 pack f 10;
#X obj 179 461 line~;
#X obj 249 435 pack f 10;
#X obj 249 461 line~;
#X obj 319 435 pack f 10;
#X obj 319 461 line~;
#X obj 19 477 inlet~;
#X obj 91 524 outlet~;
#X obj 161 498 *~;
#X obj 161 524 outlet~;
#X obj 231 498 *~;
#X obj 231 524 outlet~;
#X obj 301 498 *~;
#X obj 301 524 outlet~;
#X obj 156 30 inlet;
#X obj 303 32 inlet;
#X text 482 281 shamelessly taken from Alexandre Torres's pd-else library
[else/pan4~];
#X text 472 348 if (xpan < -1) xpan = -1 \; if (xpan > 1) xpan = 1
\; if (ypan < -1) ypan = -1 \; if (ypan > 1) ypan = 1 \; xpan = (xpan
+ 1) * 0.5 \; ypan = (ypan + 1) * 0.5 \; float back = in * (ypan ==
1 ? 0 : cos(ypan * HALF_PI)) \; float front = in * sin(ypan * HALF_PI)
\; *out1++ = back * (xpan == 1 ? 0 : cos(xpan * HALF_PI)) \; // Left
Back \; *out2++ = front * (xpan == 1 ? 0 : cos(xpan * HALF_PI)) \;
// Left Front \; *out3++ = front * sin(xpan * HALF_PI) \; // Right
Front \; *out4++ = back * sin(xpan * HALF_PI) \; // Right Back, f
93;
#X obj 78 169 t f f;
#X connect 0 0 1 0;
#X connect 1 0 4 0;
#X connect 2 0 3 0;
#X connect 3 0 6 0;
#X connect 4 0 5 0;
#X connect 5 0 63 0;
#X connect 6 0 7 0;
#X connect 7 0 21 0;
#X connect 8 0 9 0;
#X connect 9 0 10 1;
#X connect 10 0 52 0;
#X connect 11 0 30 0;
#X connect 11 1 19 0;
#X connect 12 0 13 0;
#X connect 13 0 14 0;
#X connect 14 0 18 0;
#X connect 15 0 16 0;
#X connect 16 0 17 0;
#X connect 17 0 12 0;
#X connect 19 0 20 0;
#X connect 20 0 33 0;
#X connect 21 0 11 0;
#X connect 21 1 22 0;
#X connect 22 0 23 0;
#X connect 23 0 34 0;
#X connect 26 0 29 0;
#X connect 26 1 27 0;
#X connect 27 0 28 0;
#X connect 28 0 35 0;
#X connect 29 0 35 0;
#X connect 30 0 33 0;
#X connect 33 0 36 1;
#X connect 33 1 43 1;
#X connect 34 0 37 1;
#X connect 34 1 41 1;
#X connect 35 0 36 0;
#X connect 35 1 37 0;
#X connect 36 0 8 0;
#X connect 37 0 49 0;
#X connect 38 0 39 0;
#X connect 39 0 40 0;
#X connect 40 0 43 0;
#X connect 40 1 41 0;
#X connect 41 0 47 0;
#X connect 43 0 45 0;
#X connect 45 0 46 0;
#X connect 46 0 53 1;
#X connect 47 0 48 0;
#X connect 48 0 55 1;
#X connect 49 0 50 0;
#X connect 50 0 57 1;
#X connect 51 0 10 0;
#X connect 51 0 53 0;
#X connect 51 0 55 0;
#X connect 51 0 57 0;
#X connect 53 0 54 0;
#X connect 55 0 56 0;
#X connect 57 0 58 0;
#X connect 59 0 1 0;
#X connect 60 0 3 0;
#X connect 63 0 26 0;
#X connect 63 1 38 0;
