#N canvas 478 33 700 561 12;
#X obj 28 18 inlet;
#X obj 216 441 array define \$1 \$2;
#X text 280 58 see fd_windows.pd;
#X text 25 503 how to calculate the factorial of a signal vector in
pd?;
#X obj 28 323 t f f;
#X obj 28 348 / \$2;
#X obj 28 428 array set \$1, f 9;
#X obj 28 378 fd_poisson 0.001;
#X obj 156 470 fd_smooth_brute \$1;
#X obj 156 360 t b b;
#X obj 69 99 array size \$1;
#X obj 28 50 route bang float q;
#X obj 69 75 t f f;
#X obj 188 387 f;
#X obj 206 341 - 1;
#X msg 188 412 0 0 \, \$1 0 \, normalize;
#N canvas 0 22 450 300 open 0;
#X obj 118 71 route open;
#X msg 118 95 click 0 0 0 0 0;
#X obj 119 49 inlet;
#X obj 118 119 outlet;
#X connect 0 0 1 0;
#X connect 0 1 3 0;
#X connect 1 0 3 0;
#X connect 2 0 0 0;
#X restore 216 138 pd open;
#X obj 28 144 f \$2;
#X obj 28 168 sel;
#X obj 26 215 until;
#X obj 26 239 f;
#X obj 56 239 + 1;
#X obj 91 208 loadbang;
#X obj 91 232 f \$2;
#X obj 91 256 - 1;
#X obj 26 263 sel;
#X connect 0 0 11 0;
#X connect 4 0 5 0;
#X connect 4 1 6 1;
#X connect 5 0 7 0;
#X connect 7 0 6 0;
#X connect 9 0 8 0;
#X connect 9 1 13 0;
#X connect 11 0 17 0;
#X connect 11 1 12 0;
#X connect 11 2 7 1;
#X connect 11 3 16 0;
#X connect 12 0 10 0;
#X connect 12 1 14 0;
#X connect 13 0 15 0;
#X connect 14 0 13 1;
#X connect 15 0 1 0;
#X connect 16 0 1 0;
#X connect 17 0 18 0;
#X connect 18 1 19 0;
#X connect 19 0 20 0;
#X connect 20 0 21 0;
#X connect 20 0 25 0;
#X connect 21 0 20 1;
#X connect 22 0 23 0;
#X connect 23 0 24 0;
#X connect 24 0 25 1;
#X connect 25 0 9 0;
#X connect 25 1 4 0;
