#N canvas 0 22 450 300 12;
#X obj 84 143 - 100;
#X obj 84 119 env~ 2048;
#X obj 164 143 - 100;
#X obj 164 119 env~ 16384 8192;
#X obj 84 167 pack;
#X obj 29 56 inlet~;
#X obj 84 191 s \$1;
#X obj 29 242 outlet~;
#X connect 0 0 4 0;
#X connect 1 0 0 0;
#X connect 2 0 4 1;
#X connect 3 0 2 0;
#X connect 4 0 6 0;
#X connect 5 0 1 0;
#X connect 5 0 3 0;
#X connect 5 0 7 0;
