#N canvas 0 22 450 300 10;
#X obj 57 27 inlet~;
#X obj 57 194 *~;
#X obj 101 178 *~;
#X obj 101 27 inlet~;
#X obj 149 117 lop~ 100;
#X obj 149 40 loadbang;
#X obj 149 96 tabosc4~ 0-arc;
#X obj 57 237 throw~ \$2-\$1;
#X obj 149 69 crand 0 0.3;
#X connect 0 0 1 0;
#X connect 1 0 7 0;
#X connect 2 0 1 1;
#X connect 3 0 2 0;
#X connect 4 0 2 1;
#X connect 5 0 8 0;
#X connect 6 0 4 0;
#X connect 8 0 6 0;
