#N canvas 80 96 1405 794 12;
#X text 53 35 t_pan4 *x = (t_pan4 *)(w[1]) \; int nblock = (t_int)(w[2])
\; t_float *in1 = (t_float *)(w[3]) \; // in t_float *in2 = (t_float
*)(w[4]) \; // xpan t_float *in3 = (t_float *)(w[5]) \; // xpan t_float
*out1 = (t_float *)(w[6]) \; // BL t_float *out2 = (t_float *)(w[7])
\; // FL t_float *out3 = (t_float *)(w[8]) \; // BL t_float *out4 =
(t_float *)(w[9]) \; // FL while (nblock--) float in = *in1++ \; float
xpan = *in2++ \; float ypan = *in3++ \; if (xpan < -1) xpan = -1 \;
if (xpan > 1) xpan = 1 \; if (ypan < -1) ypan = -1 \; if (ypan > 1)
ypan = 1 \; xpan = (xpan + 1) * 0.5 \; ypan = (ypan + 1) * 0.5 \; float
back = in * (ypan == 1 ? 0 : cos(ypan * HALF_PI)) \; float front =
in * sin(ypan * HALF_PI) \; *out1++ = back * (xpan == 1 ? 0 : cos(xpan
* HALF_PI)) \; // Left Back *out2++ = front * (xpan == 1 ? 0 : cos(xpan
* HALF_PI)) \; // Left Front *out3++ = front * sin(xpan * HALF_PI)
\; // Right Front *out4++ = back * sin(xpan * HALF_PI) \; // Right
Back, f 84;
#X obj 765 33 inlet x;
#X obj 958 28 inlet y;
#X obj 766 154 + 1;
#X obj 766 178 * 0.5;
#X obj 765 117 clip -1 1;
#X obj 1021 160 + 1;
#X obj 1021 184 * 0.5;
#X obj 1020 123 clip -1 1;
#X obj 1021 244 sel 1;
#X msg 1021 268 0;
#X obj 1103 347 cos;
#X obj 1103 296 * 3.14159;
#X obj 1103 320 / 2;
#X obj 1200 298 * 3.14159;
#X obj 1200 322 / 2;
#X obj 1200 349 sin;
#X obj 1021 214 t f f;
#X obj 767 251 sel 1;
#X msg 767 275 0;
#X obj 849 354 cos;
#X obj 851 302 * 3.14159;
#X obj 849 327 / 2;
#X obj 946 305 * 3.14159;
#X obj 946 329 / 2;
#X obj 946 356 sin;
#X obj 767 221 t f f;
#X obj 892 560 *;
#X obj 976 557 *;
#X obj 860 438 t f f;
#X obj 1117 548 *;
#X obj 1230 549 *;
#X obj 963 439 t f f;
#X obj 1104 427 t f f;
#X obj 1183 428 t f f;
#X text 881 594 LB;
#X text 979 592 LF;
#X text 1117 587 RF;
#X text 1233 586 RB;
#X obj 796 666 pack f f f f;
#X obj 796 690 outlet;
#X obj 957 72 t b f;
#X obj 765 75 f;
#X connect 1 0 42 0;
#X connect 2 0 41 0;
#X connect 3 0 4 0;
#X connect 4 0 26 0;
#X connect 5 0 3 0;
#X connect 6 0 7 0;
#X connect 7 0 17 0;
#X connect 8 0 6 0;
#X connect 9 0 10 0;
#X connect 9 1 12 0;
#X connect 10 0 11 0;
#X connect 11 0 33 0;
#X connect 12 0 13 0;
#X connect 13 0 11 0;
#X connect 14 0 15 0;
#X connect 15 0 16 0;
#X connect 16 0 34 0;
#X connect 17 0 9 0;
#X connect 17 1 14 0;
#X connect 18 0 19 0;
#X connect 18 1 21 0;
#X connect 19 0 20 0;
#X connect 20 0 29 0;
#X connect 21 0 22 0;
#X connect 22 0 20 0;
#X connect 23 0 24 0;
#X connect 24 0 25 0;
#X connect 25 0 32 0;
#X connect 26 0 18 0;
#X connect 26 1 23 0;
#X connect 27 0 39 0;
#X connect 28 0 39 1;
#X connect 29 0 27 0;
#X connect 29 1 28 0;
#X connect 30 0 39 2;
#X connect 31 0 39 3;
#X connect 32 0 30 0;
#X connect 32 1 31 0;
#X connect 33 0 27 1;
#X connect 33 1 31 1;
#X connect 34 0 28 1;
#X connect 34 1 30 1;
#X connect 39 0 40 0;
#X connect 41 0 42 0;
#X connect 41 1 8 0;
#X connect 42 0 5 0;
