#N canvas 0 22 450 300 10;
#X obj 57 27 inlet~;
#X obj 57 194 *~;
#X obj 101 178 *~;
#X obj 101 27 inlet~;
#X obj 149 27 inlet;
#X obj 148 135 tabosc4~;
#X obj 149 48 route bang;
#X obj 148 156 lop~ 100;
#X obj 247 53 loadbang;
#X obj 246 123 f \$1;
#X obj 246 144 mod 4;
#X obj 246 165 + 1;
#X msg 246 186 set dacout-\$1;
#X obj 57 237 throw~;
#X obj 149 70 random 30;
#X obj 149 92 / 100;
#X connect 0 0 1 0;
#X connect 1 0 13 0;
#X connect 2 0 1 1;
#X connect 3 0 2 0;
#X connect 4 0 6 0;
#X connect 5 0 7 0;
#X connect 6 0 14 0;
#X connect 6 1 5 0;
#X connect 7 0 2 1;
#X connect 8 0 9 0;
#X connect 9 0 10 0;
#X connect 10 0 11 0;
#X connect 11 0 12 0;
#X connect 12 0 13 0;
#X connect 14 0 15 0;
#X connect 15 0 5 0;
