#N canvas 545 61 450 300 12;
#X declare -path ./lib;
#X declare -path fd_lib;
#N canvas 524 142 623 506 loadbang 0;
#X obj 71 104 text define -k soundlist;
#A set ../../../Sounds/NewSounds/Kevin1.wav \; ../../../Sounds/NewSounds/Kevin2.wav
\; ../../../Sounds/NewSounds/Kevin3.wav \; ../../../Sounds/NewSounds/Kevin4.wav
\; ../../../Sounds/NewSounds/Kevin5.wav \; ../../../Sounds/NewSounds/Mandy1.wav
\; ../../../Sounds/NewSounds/Mandy2.wav \; ../../../Sounds/NewSounds/Mandy3.wav
\; ../../../Sounds/NewSounds/Mandy4.wav \; ../../../Sounds/NewSounds/Mandy5.wav
\;;
#X msg 75 251 line 0 \, auto;
#X obj 75 200 bng 15 250 50 0 empty empty empty 17 7 0 10 -262144 -1
-1;
#X obj 39 18 declare -path ./lib;
#X obj 74 352 t b a;
#X obj 74 378 f;
#X obj 104 378 + 1;
#X msg 272 274 0;
#X obj 74 404 list;
#X msg 74 430 read -resize \$2 s-\$1;
#X obj 74 456 soundfiler;
#X obj 322 22 clone _arrclone 10 define s;
#X obj 75 225 t b b;
#X obj 71 131 text define -k distractions;
#A set ../../../Sounds/Distractions/Modem-KP-551027942_2.wav \; ../../../Sounds/Distractions/Telephone1.wav
\; ../../../Sounds/Distractions/Telephone2.wav \; ../../../Sounds/Distractions/Cab_Skid.aiff
\; ../../../Sounds/Distractions/Cab_With_Horn.aiff \; ../../../Sounds/Distractions/Doppler_Horn.aiff
\; ../../../Sounds/Distractions/SUBWAY_NY.aiff \; ../../../Sounds/Distractions/Swimming_Pool.aiff
\;;
#X obj 75 277 text sequence distractions;
#X msg 47 76 read ../txt/distractions.txt;
#X msg 44 47 read -c ../txt/soundlist.txt;
#X connect 1 0 14 0;
#X connect 2 0 12 0;
#X connect 4 0 5 0;
#X connect 4 1 8 1;
#X connect 5 0 6 0;
#X connect 5 0 8 0;
#X connect 6 0 5 1;
#X connect 7 0 5 1;
#X connect 8 0 9 0;
#X connect 9 0 10 0;
#X connect 12 0 1 0;
#X connect 12 1 7 0;
#X connect 14 0 4 0;
#X connect 15 0 13 0;
#X connect 16 0 0 0;
#X restore 22 24 pd loadbang;
#N canvas 0 22 450 300 dac 0;
#X obj 34 29 catch~ mono;
#X obj 34 81 env~;
#X obj 34 107 - 100;
#X obj 34 133 s vu;
#X obj 34 55 clone -s 1 _dacout 4 vol 2;
#X connect 0 0 4 0;
#X connect 1 0 2 0;
#X connect 2 0 3 0;
#X connect 4 0 1 0;
#X restore 23 89 pd dac;
#N canvas 1003 63 154 216 vol 1;
#X obj 37 24 vsl 15 128 0 127 0 0 vol vol-set vol 0 -9 0 10 -262144
-1 -1 11200 1;
#X obj 72 32 vu 15 120 vu empty -1 -8 0 10 -66577 -1 1 0;
#X obj 46 166 nbx 5 14 -1e+37 1e+37 0 0 empty vol empty 0 -8 0 10 -262144
-1 -1 112 256;
#X restore 73 89 pd vol;
#N canvas 327 6 953 772 puzzle 0;
#X obj 377 263 random 9;
#X obj 665 42 text define puzzle_text;
#X obj 665 66 array define -k puzzle_array 4;
#A 0 10 9 8 11;
#X obj 639 172 sel;
#X obj 88 27 r puzzle;
#X msg 21 231 line 0;
#X msg 88 229 step;
#X obj 21 285 t a a;
#X obj 123 544 tabplay~;
#X obj 123 306 t a a;
#X obj 123 332 list split 1;
#X obj 123 358 makefilename s-%d;
#X msg 123 384 set \$1;
#X obj 250 327 print reading;
#X obj 278 499 bng 15 250 50 0 empty empty empty 17 7 0 10 -262144
-1 -1;
#X obj 21 432 list split 1;
#X obj 197 285 print ended;
#X msg 148 490 stop;
#X obj 21 258 text sequence puzzle_text;
#X obj 123 592 throw~ mono;
#X msg 376 611 \; puzzle next;
#X obj 664 18 text define -k puzzle_samptimes;
#A set 0 0 388625 \; 0 388625 388625 \; 0 777249 388625 \; 0 1.16587e+06
388625 \; 0 1.5545e+06 388625 \; 0 1.94312e+06 388625 \; 0 2.33175e+06
388625 \; 0 2.72037e+06 388625 \; 0 3.109e+06 388625 \; 0 3.49762e+06
388625 \; 0 3.88625e+06 388625 \; 0 4.27487e+06 388625 \; 1 0 316723
\; 1 316723 316723 \; 1 633446 316723 \; 1 950170 316723 \; 1 1.26689e+06
316723 \; 1 1.58362e+06 316723 \; 1 1.90034e+06 316723 \; 1 2.21706e+06
316723 \; 1 2.53379e+06 316723 \; 1 2.85051e+06 316723 \; 1 3.16723e+06
316723 \; 1 3.48396e+06 316723 \; 2 0 330861 \; 2 330861 330861 \;
2 661723 330861 \; 2 992584 330861 \; 2 1.32345e+06 330861 \; 2 1.65431e+06
330861 \; 2 1.98517e+06 330861 \; 2 2.31603e+06 330861 \; 2 2.64689e+06
330861 \; 2 2.97775e+06 330861 \; 2 3.30861e+06 330861 \; 2 3.63948e+06
330861 \; 3 0 247731 \; 3 247731 247731 \; 3 495463 247731 \; 3 743194
247731 \; 3 990926 247731 \; 3 1.23866e+06 247731 \; 3 1.48639e+06
247731 \; 3 1.73412e+06 247731 \; 3 1.98185e+06 247731 \; 3 2.22958e+06
247731 \; 3 2.47731e+06 247731 \; 3 2.72505e+06 247731 \; 4 0 333944
\; 4 333944 333944 \; 4 667887 333944 \; 4 1.00183e+06 333944 \; 4
1.33577e+06 333944 \; 4 1.66972e+06 333944 \; 4 2.00366e+06 333944
\; 4 2.33761e+06 333944 \; 4 2.67155e+06 333944 \; 4 3.00549e+06 333944
\; 4 3.33944e+06 333944 \; 4 3.67338e+06 333944 \; 5 0 264261 \; 5
264261 264261 \; 5 528522 264261 \; 5 792784 264261 \; 5 1.05704e+06
264261 \; 5 1.32131e+06 264261 \; 5 1.58557e+06 264261 \; 5 1.84983e+06
264261 \; 5 2.11409e+06 264261 \; 5 2.37835e+06 264261 \; 5 2.64261e+06
264261 \; 5 2.90687e+06 264261 \; 6 0 225623 \; 6 225623 225623 \;
6 451246 225623 \; 6 676870 225623 \; 6 902493 225623 \; 6 1.12812e+06
225623 \; 6 1.35374e+06 225623 \; 6 1.57936e+06 225623 \; 6 1.80499e+06
225623 \; 6 2.03061e+06 225623 \; 6 2.25623e+06 225623 \; 6 2.48186e+06
225623 \; 7 0 142794 \; 7 142794 142794 \; 7 285588 142794 \; 7 428381
142794 \; 7 571175 142794 \; 7 713969 142794 \; 7 856762 142794 \;
7 999556 142794 \; 7 1.14235e+06 142794 \; 7 1.28514e+06 142794 \;
7 1.42794e+06 142794 \; 7 1.57073e+06 142794 \; 8 0 172557 \; 8 172557
172557 \; 8 345114 172557 \; 8 517671 172557 \; 8 690228 172557 \;
8 862785 172557 \; 8 1.03534e+06 172557 \; 8 1.2079e+06 172557 \; 8
1.38046e+06 172557 \; 8 1.55301e+06 172557 \; 8 1.72557e+06 172557
\; 8 1.89813e+06 172557 \; 9 0 499224 \; 9 499224 499224 \; 9 998447
499224 \; 9 1.49767e+06 499224 \; 9 1.99689e+06 499224 \; 9 2.49612e+06
499224 \; 9 2.99534e+06 499224 \; 9 3.49457e+06 499224 \; 9 3.99379e+06
499224 \; 9 4.49301e+06 499224 \; 9 4.99224e+06 499224 \; 9 5.49146e+06
499224 \;;
#X obj 351 182 t b b b;
#X obj 414 224 text size soundlist;
#X msg 379 439 \; puzzle len 4;
#X msg 381 525 \; puzzle rand;
#X msg 499 437 \; puzzle len 6;
#X msg 602 436 \; puzzle len 8;
#X msg 708 435 \; puzzle len 12;
#X msg 557 522 \; puzzle 0;
#X obj 424 170 t b f;
#X obj 343 211 s rewind;
#X obj 424 196 s rewind;
#X obj 21 206 r rewind;
#N canvas 0 22 471 818 puzzle_samptimes 0;
#X obj 105 323 makefilename s-%d;
#X obj 105 349 t b a;
#X obj 105 374 array size;
#X obj 105 424 / 4;
#X obj 105 543 until;
#X obj 105 569 f;
#X obj 138 569 + 1;
#X obj 156 624 *;
#X obj 184 659 pack;
#X obj 105 450 t b f f;
#X obj 106 597 t f f;
#X obj 82 241 until;
#X obj 82 267 f;
#X obj 120 267 + 1;
#X obj 184 729 t a b;
#X msg 231 725 10000;
#X obj 184 694 list prepend;
#X obj 82 293 t f f f;
#X obj 68 126 text size soundlist;
#X obj 68 152 sel;
#X obj 68 178 print empty_soundlist!;
#X obj 83 214 t f b;
#X msg 125 240 0;
#X obj 105 476 f 4;
#X obj 105 509 t f b;
#X msg 148 543 0;
#X obj 264 362 t f f;
#X obj 184 755 text set puzzle_samptimes;
#X obj 68 100 t b f b, f 19;
#X msg 223 148 \; puzzle_samptimes clear;
#X obj 39 20 inlet;
#X text 125 23 get all sizes of loaded sound files \; divide them in
equal length segments \; prepend each segment its soundfile index \;
stack them into a text file \;;
#X obj 40 53 t f f;
#X obj 46 780 outlet;
#X text 106 780 pass input value when done;
#X connect 0 0 1 0;
#X connect 1 0 2 0;
#X connect 1 1 2 1;
#X connect 2 0 3 0;
#X connect 3 0 9 0;
#X connect 4 0 5 0;
#X connect 5 0 10 0;
#X connect 6 0 5 1;
#X connect 7 0 8 0;
#X connect 8 0 16 0;
#X connect 9 0 23 0;
#X connect 9 1 7 1;
#X connect 9 2 8 1;
#X connect 10 0 6 0;
#X connect 10 1 7 0;
#X connect 11 0 12 0;
#X connect 12 0 17 0;
#X connect 13 0 12 1;
#X connect 14 0 27 0;
#X connect 14 1 15 0;
#X connect 15 0 27 1;
#X connect 16 0 14 0;
#X connect 17 0 13 0;
#X connect 17 1 0 0;
#X connect 17 2 16 1;
#X connect 18 0 19 0;
#X connect 19 0 20 0;
#X connect 19 1 21 0;
#X connect 21 0 11 0;
#X connect 21 1 22 0;
#X connect 22 0 12 1;
#X connect 23 0 24 0;
#X connect 24 0 4 0;
#X connect 24 1 25 0;
#X connect 25 0 5 1;
#X connect 26 0 3 1;
#X connect 26 1 23 1;
#X connect 28 0 18 0;
#X connect 28 1 26 0;
#X connect 28 2 29 0;
#X connect 30 0 32 0;
#X connect 32 0 33 0;
#X connect 32 1 28 0;
#X restore 657 213 pd puzzle_samptimes;
#N canvas 0 22 450 552 puzzle_array 0;
#X obj 71 305 list prepend append;
#X obj 71 331 list trim;
#X obj 71 357 list store;
#X obj 187 215 array size puzzle_array;
#X obj 57 220 f;
#X obj 112 220 + 1;
#X obj 58 245 t f f;
#X obj 57 191 until;
#X msg 111 191 0;
#X obj 71 384 array set puzzle_array;
#X obj 29 160 t b f b b f, f 21;
#X obj 28 17 inlet;
#X text 95 19 resize puzzle_array (of soundfile indices) \; fill it
with sorted indices in increasing order \;;
#X connect 0 0 1 0;
#X connect 1 0 2 0;
#X connect 2 0 9 0;
#X connect 4 0 6 0;
#X connect 5 0 4 1;
#X connect 6 0 5 0;
#X connect 6 1 0 0;
#X connect 7 0 4 0;
#X connect 8 0 4 1;
#X connect 10 0 2 0;
#X connect 10 1 7 0;
#X connect 10 2 8 0;
#X connect 10 3 2 1;
#X connect 10 4 3 0;
#X connect 11 0 10 0;
#X restore 657 251 pd puzzle_array;
#N canvas 47 450 854 728 puzzle_text 0;
#X obj 72 274 * 4;
#X obj 85 388 f;
#X obj 140 388 + 1;
#X obj 140 414 mod 4;
#X obj 86 413 t f f;
#X obj 85 359 until;
#X obj 85 307 t b b f, f 14;
#X msg 139 359 0;
#X obj 167 506 +;
#X obj 168 567 t a b;
#X msg 214 564 1000;
#X obj 72 246 t f b b, f 24;
#X obj 85 333 f 4;
#X msg 245 333 \; puzzle_text clear;
#X obj 168 593 text set puzzle_text;
#X obj 165 453 array get puzzle_array 0 1;
#X obj 281 294 fd_shuffle puzzle_array;
#X obj 240 487 print;
#X obj 168 541 text get puzzle_samptimes;
#X obj 163 202 t f f f;
#X obj 72 63 inlet;
#X obj 72 129 t f b;
#X obj 163 176 array size puzzle_array;
#X text 188 20 input is soundfile index to read from (see soundlist
textfile) \; get size of puzzle_array (length of the puzzle) \; shuffle
the indices in-place \; clear the puzzle_text text so we can store
the current puzzle \; get all shuffled indices \; use them to fetch
puzzle_samptimes of incoming soundfile index \; fill the puzzle_text
with the current puzzle sample times \;, f 71;
#X connect 0 0 6 0;
#X connect 1 0 4 0;
#X connect 2 0 3 0;
#X connect 3 0 1 1;
#X connect 4 0 2 0;
#X connect 4 1 15 0;
#X connect 5 0 1 0;
#X connect 6 0 12 0;
#X connect 6 1 7 0;
#X connect 6 2 8 1;
#X connect 7 0 1 1;
#X connect 8 0 18 0;
#X connect 9 0 14 0;
#X connect 9 1 10 0;
#X connect 10 0 14 1;
#X connect 11 0 0 0;
#X connect 11 1 13 0;
#X connect 11 2 16 0;
#X connect 12 0 5 0;
#X connect 15 0 8 0;
#X connect 18 0 9 0;
#X connect 19 0 0 1;
#X connect 19 1 12 1;
#X connect 19 2 3 1;
#X connect 20 0 21 0;
#X connect 21 0 11 0;
#X connect 21 1 22 0;
#X connect 22 0 19 0;
#X restore 456 340 pd puzzle_text;
#X obj 344 133 route rand float;
#X obj 637 141 route len;
#X msg 641 521 \; puzzle 1;
#X text 376 410 first send a length message to determine puzzle parts:
;
#X text 381 488 then select one either randomly or by sending a number:
;
#X text 713 539 ... until max soundfiles.;
#X text 373 585 finally \, get puzzle in shuffled sequence;
#X msg 247 442 bang;
#X msg 725 679 \; puzzle stop;
#X text 717 656 stop playback:;
#X msg 377 682 \; puzzle play;
#X text 376 660 or play the whole soundfile in order;
#X obj 89 116 route next stop play;
#X connect 0 0 36 0;
#X connect 3 1 34 0;
#X connect 4 0 49 0;
#X connect 5 0 18 0;
#X connect 6 0 18 0;
#X connect 7 0 15 0;
#X connect 7 1 9 0;
#X connect 8 0 19 0;
#X connect 8 1 14 0;
#X connect 9 0 10 0;
#X connect 9 1 13 0;
#X connect 10 0 11 0;
#X connect 11 0 12 0;
#X connect 12 0 8 0;
#X connect 15 1 8 0;
#X connect 17 0 8 0;
#X connect 18 0 7 0;
#X connect 18 1 16 0;
#X connect 22 0 31 0;
#X connect 22 1 0 0;
#X connect 22 2 23 0;
#X connect 23 0 0 1;
#X connect 30 0 32 0;
#X connect 30 1 36 0;
#X connect 33 0 5 0;
#X connect 34 0 35 0;
#X connect 37 0 22 0;
#X connect 37 1 30 0;
#X connect 37 2 38 0;
#X connect 38 0 3 0;
#X connect 44 0 8 0;
#X connect 49 0 6 0;
#X connect 49 1 17 0;
#X connect 49 2 44 0;
#X connect 49 3 37 0;
#X restore 24 150 pd puzzle;
#N canvas 265 0 1015 778 clouds 0;
#X obj 671 291 switch~;
#X obj 45 152 noise~;
#X obj 52 494 bp~ 65 2;
#X obj 490 545 osc~ 0.1;
#X obj 490 571 *~ 0.5;
#X obj 490 597 +~ 0.5;
#X obj 40 696 clone _tabamp 4;
#X obj 568 568 *~ 0.5;
#X obj 568 594 +~ 0.5;
#X obj 305 711 clone _tabamp 4;
#X msg 703 660 all set 0-arc \, all bang;
#X obj 568 623 *~ 0.4;
#X obj 212 493 bp~ 286 3;
#X obj 567 539 osc~ 0.13;
#X obj 704 637 loadbang;
#X obj 610 171 r clouds;
#X obj 607 219 fd_switch;
#X obj 41 437 *~;
#X obj 528 429 r cloudsp;
#X obj 529 472 t f f;
#X obj 566 512 * 1.01;
#X obj 43 240 *~;
#X obj 175 202 line~;
#X obj 177 170 pack f 10;
#X obj 188 130 dbtorms;
#X obj 191 105 r cloud-vol;
#X connect 1 0 21 0;
#X connect 2 0 6 0;
#X connect 3 0 4 0;
#X connect 4 0 5 0;
#X connect 5 0 6 1;
#X connect 7 0 8 0;
#X connect 8 0 11 0;
#X connect 10 0 9 2;
#X connect 10 0 6 2;
#X connect 11 0 9 1;
#X connect 12 0 9 0;
#X connect 13 0 7 0;
#X connect 14 0 10 0;
#X connect 15 0 16 0;
#X connect 16 0 17 1;
#X connect 16 1 0 0;
#X connect 17 0 2 0;
#X connect 17 0 12 0;
#X connect 18 0 19 0;
#X connect 19 0 3 0;
#X connect 19 1 20 0;
#X connect 20 0 13 0;
#X connect 21 0 17 0;
#X connect 22 0 21 1;
#X connect 23 0 22 0;
#X connect 24 0 23 0;
#X connect 25 0 24 0;
#X restore 133 50 pd clouds _______;
#N canvas 810 350 470 428 ambsound 0;
#X obj 53 15 noise~;
#X obj 47 190 hip~ 600;
#X obj 47 211 hip~ 600;
#X obj 45 148 lop~ 1800;
#X obj 46 167 lop~ 1800;
#X obj 45 293 delwrite~ lrdel 100;
#X obj 189 235 *~ 0.5;
#X obj 189 256 +~ 0.5;
#X obj 187 299 delread4~ lrdel;
#X obj 42 236 *~ 0.02;
#X obj 189 214 osc~ 0.01;
#X obj 176 18 r ambsound;
#X obj 226 97 pack f 10;
#X obj 226 118 line~;
#X obj 58 115 *~;
#X obj 109 188 r ambhp;
#X obj 111 144 r amblp;
#X floatatom 119 163 0 0 0 0 - - -;
#X floatatom 109 209 0 0 0 0 - - -;
#X obj 191 277 *~ 100;
#X obj 105 72 fd_switch;
#X obj 154 94 switch~;
#X obj 60 88 *~;
#X obj 176 39 t f f;
#X obj 114 37 > 0;
#X obj 49 327 throw~ dacout-1;
#X obj 181 324 throw~ dacout-2;
#X obj 66 347 throw~ dacout-3;
#X obj 194 345 throw~ dacout-4;
#X obj 29 267 *~ 0.5;
#X connect 0 0 22 0;
#X connect 1 0 2 0;
#X connect 2 0 9 0;
#X connect 3 0 4 0;
#X connect 4 0 1 0;
#X connect 6 0 7 0;
#X connect 7 0 19 0;
#X connect 8 0 26 0;
#X connect 8 0 28 0;
#X connect 9 0 29 0;
#X connect 10 0 6 0;
#X connect 11 0 23 0;
#X connect 12 0 13 0;
#X connect 13 0 14 1;
#X connect 14 0 3 0;
#X connect 15 0 1 1;
#X connect 15 0 2 1;
#X connect 15 0 18 0;
#X connect 16 0 3 1;
#X connect 16 0 4 1;
#X connect 16 0 17 0;
#X connect 19 0 8 0;
#X connect 20 0 22 1;
#X connect 20 1 21 0;
#X connect 22 0 14 0;
#X connect 23 0 24 0;
#X connect 23 1 12 0;
#X connect 24 0 20 0;
#X connect 29 0 5 0;
#X connect 29 0 25 0;
#X connect 29 0 27 0;
#X restore 131 76 pd ambsound _____;
#N canvas 872 150 408 628 controls 0;
#X obj 26 373 vsl 15 128 0.01 1 1 0 watervol watervol-set watervol
0 -9 0 10 -262144 -1 -1 0 1;
#X obj 147 373 vsl 15 128 1 20000 1 0 grainlp grainlp-set grainlp 0
-9 0 10 -262144 -1 -1 0 1;
#X obj 86 373 vsl 15 128 0 100 0 0 water water-set water 0 -9 0 10
-262144 -1 -1 0 1;
#X obj 146 519 nbx 5 14 -1e+37 1e+37 0 0 empty grainlp grainlp 0 -8
0 10 -262144 -1 -1 0 256;
#X obj 86 519 nbx 5 14 -1e+37 1e+37 0 0 empty water water 0 -8 0 10
-262144 -1 -1 0 256;
#X obj 26 519 nbx 5 14 -1e+37 1e+37 0 0 empty watervol watervol 0 -8
0 10 -262144 -1 -1 0 256;
#X msg 26 537 \; water-set 0 \; watervol-set 0 \;;
#N canvas 0 22 450 300 waterpreset 0;
#X msg 95 92 \; water-set 0.001 \; grainlp-set 100 \; graintab-set
2 1;
#X restore 210 507 pd waterpreset;
#X text 20 332 WATER_________________________________________;
#X obj 28 51 vsl 15 128 0 1 0 0 ambsound ambsound-set ambsound 0 -9
0 10 -262144 -1 -1 0 1;
#X obj 88 51 vsl 15 128 20 20000 1 0 ambhp ambhp-set ambhp 0 -9 0 10
-262144 -1 -1 0 1;
#X obj 146 51 vsl 15 128 20 20000 1 0 amblp amblp-set amblp 0 -9 0
10 -262144 -1 -1 0 1;
#X msg 26 220 \; ambsound-set 0 \;;
#X obj 213 115 tgl 15 0 clouds clouds-set clouds 17 7 0 10 -262144
-1 -1 0 1;
#X obj 25 199 nbx 5 14 -1e+37 1e+37 0 0 empty ambsound ambsound 0 -8
0 10 -262144 -1 -1 0 256;
#X obj 85 199 nbx 5 14 -1e+37 1e+37 0 0 empty ambhp ambhp 0 -8 0 10
-262144 -1 -1 0 256;
#X obj 145 199 nbx 5 14 -1e+37 1e+37 0 0 empty amblp amblp 0 -8 0 10
-262144 -1 -1 0 256;
#X obj 214 165 hsl 70 15 0.01 100 1 0 cloudsp cloudsp-set cloudsp -2
-8 0 10 -262144 -1 -1 0 1;
#N canvas 0 22 450 300 ampreset 0;
#X msg 64 79 \; ambsound-set 0 \; amblp-set 1800 \; ambhp-set 600 \;
;
#X msg 64 133 \; ambsound-set 0 \; ambhp-set 34 \; amblp-set 853 \;
;
#X restore 139 223 pd ampreset;
#X obj 210 199 nbx 5 14 -1e+37 1e+37 0 0 empty cloudsp cloudsp 0 -8
0 10 -262144 -1 -1 0 256;
#X text 211 91 CLOUDS______;
#X obj 210 371 _tabtab graintab;
#X obj 313 66 vsl 15 128 0 127 0 0 cloud-vol cloud-vol-set cloud-vol
0 -9 0 10 -262144 -1 -1 0 1;
#X restore 25 235 pd controls;
#N canvas 284 85 883 625 water 0;
#X obj 83 273 t b b b;
#X obj 42 345 random 100;
#X obj 51 460 pack;
#X obj 115 393 mtof;
#X obj 76 499 list;
#X obj 170 116 -;
#X msg 152 68 100 \$1;
#X floatatom 185 145 5 0 0 0 - - -;
#X obj 106 68 sel;
#X msg 68 91 0;
#X obj 85 155 t f f;
#X obj 81 183 > 0;
#X obj 81 211 change;
#X obj 81 237 metro 15;
#X obj 111 19 r water;
#X obj 226 387 r graintab;
#X obj 226 447 list prepend all;
#X obj 229 475 list trim;
#X obj 89 559 clone _grain 100 4;
#X msg 252 417 list 0-noi 0-poi;
#X obj 459 422 r watervol;
#X obj 459 448 list prepend all;
#X obj 459 474 list trim;
#X obj 431 46 catch~ water-1;
#X obj 463 66 catch~ water-2;
#X obj 495 85 catch~ water-3;
#X obj 574 107 catch~ water-4;
#X obj 457 173 rev3~ 100 80 3000 25;
#X obj 612 172 rev3~ 100 80 3000 25;
#X obj 525 265 throw~ dacout-1;
#X obj 559 289 throw~ dacout-2;
#X obj 590 317 throw~ dacout-3;
#X obj 616 341 throw~ dacout-4;
#X floatatom 675 25 5 0 0 0 - - -;
#X obj 675 76 t f f;
#X floatatom 758 25 5 0 0 0 - - -;
#X obj 758 76 t f f;
#X obj 758 50 clip 0 99;
#X obj 675 50 clip 0 120;
#X obj 112 330 random 60;
#X obj 113 361 + 40;
#X obj 190 316 random 40;
#X obj 194 352 + 60;
#X connect 0 0 1 0;
#X connect 0 1 39 0;
#X connect 0 2 41 0;
#X connect 1 0 2 0;
#X connect 2 0 4 0;
#X connect 3 0 2 1;
#X connect 4 0 18 0;
#X connect 5 0 7 0;
#X connect 5 0 10 0;
#X connect 5 0 4 1;
#X connect 6 0 5 0;
#X connect 8 0 9 0;
#X connect 8 1 6 0;
#X connect 9 0 10 0;
#X connect 10 0 11 0;
#X connect 10 1 13 1;
#X connect 11 0 12 0;
#X connect 12 0 13 0;
#X connect 13 0 0 0;
#X connect 14 0 8 0;
#X connect 15 0 16 0;
#X connect 16 0 17 0;
#X connect 17 0 18 1;
#X connect 19 0 16 0;
#X connect 20 0 21 0;
#X connect 21 0 22 0;
#X connect 22 0 18 2;
#X connect 23 0 27 0;
#X connect 24 0 27 1;
#X connect 25 0 28 0;
#X connect 26 0 28 1;
#X connect 27 0 29 0;
#X connect 27 1 30 0;
#X connect 27 2 31 0;
#X connect 27 3 32 0;
#X connect 28 0 29 0;
#X connect 28 1 30 0;
#X connect 28 2 31 0;
#X connect 28 3 32 0;
#X connect 33 0 38 0;
#X connect 34 0 27 2;
#X connect 34 1 28 2;
#X connect 35 0 37 0;
#X connect 36 0 27 3;
#X connect 36 1 28 3;
#X connect 37 0 36 0;
#X connect 38 0 34 0;
#X connect 39 0 40 0;
#X connect 40 0 3 0;
#X connect 41 0 42 0;
#X connect 42 0 4 1;
#X restore 130 103 pd water ________;
#X obj 293 60 fd_windows 0 2051;
#X obj 217 203 _pan4~, f 18;
#X obj 217 229 env~;
#X floatatom 217 255 5 0 0 0 - - -;
#X obj 257 229 env~;
#X floatatom 257 255 5 0 0 0 - - -;
#X obj 297 229 env~;
#X floatatom 297 255 5 0 0 0 - - -;
#X obj 337 229 env~;
#X floatatom 337 255 5 0 0 0 - - -;
#X obj 207 140 osc~ 330;
#X obj 279 166 unpack;
#X obj 275 17 declare -path fd_lib;
#N canvas 519 284 606 454 merger 0;
#X obj 29 32 noise~;
#X obj 31 109 *~ 0.1;
#X obj 51 264 _pan4-sig~, f 18;
#X obj 115 204 osc~ 0.1;
#X obj 180 205 osc~ 0.1;
#X msg 242 203 0.25;
#X obj 236 175 loadbang;
#X obj 82 339 throw~ dacout-1;
#X obj 142 403 throw~ dacout-4;
#X obj 125 385 throw~ dacout-3;
#X obj 103 363 throw~ dacout-3;
#X obj 31 135 bp~ 254 3;
#X obj 435 87 bng 15 250 50 0 empty empty empty 17 7 0 10 -262144 -1
-1;
#X obj 406 165 tabplay~ s-0;
#X msg 416 132 set s-\$1 \, bang;
#X obj 472 9 tgl 15 0 empty empty empty 17 7 0 10 -262144 -1 -1 1 1
;
#X obj 414 108 random 10;
#X obj 466 77 spigot 1;
#X obj 467 27 t f f;
#X obj 467 53 sel 1;
#X floatatom 136 137 5 0 0 0 - - -;
#X obj 113 234 *~ 0.1;
#X obj 177 234 *~ 0.1;
#X floatatom 254 254 5 0 0 0 - - -;
#X floatatom 138 47 5 0 0 0 - - -;
#X floatatom 209 60 5 0 0 0 - - -;
#X obj 209 85 max 0.1;
#X connect 0 0 1 0;
#X connect 1 0 11 0;
#X connect 2 0 7 0;
#X connect 2 1 10 0;
#X connect 2 2 9 0;
#X connect 2 3 8 0;
#X connect 3 0 21 0;
#X connect 4 0 22 0;
#X connect 5 0 4 1;
#X connect 6 0 5 0;
#X connect 11 0 2 0;
#X connect 12 0 16 0;
#X connect 13 0 1 0;
#X connect 13 1 17 0;
#X connect 14 0 13 0;
#X connect 15 0 18 0;
#X connect 16 0 14 0;
#X connect 17 0 12 0;
#X connect 18 0 19 0;
#X connect 18 1 17 1;
#X connect 19 0 17 0;
#X connect 20 0 3 0;
#X connect 20 0 4 0;
#X connect 21 0 2 1;
#X connect 22 0 2 2;
#X connect 23 0 22 1;
#X connect 23 0 21 1;
#X connect 24 0 11 1;
#X connect 25 0 26 0;
#X connect 26 0 11 2;
#X restore 24 185 pd merger;
#X connect 9 0 10 0;
#X connect 9 1 12 0;
#X connect 9 2 14 0;
#X connect 9 3 16 0;
#X connect 10 0 11 0;
#X connect 12 0 13 0;
#X connect 14 0 15 0;
#X connect 16 0 17 0;
#X connect 18 0 9 0;
#X connect 19 0 9 1;
#X connect 19 1 9 2;
