#N canvas 530 50 784 439 12;
#N canvas 0 22 1166 436 receive 0;
#X obj 38 235 r b_on;
#X obj 91 235 r b_off;
#X obj 451 222 r p1_pos;
#X obj 518 221 r p2_pos;
#X text 31 212 Bird on or off branch:;
#X text 242 204 Cloud collision;
#X obj 267 231 r c_col;
#X text 500 197 or;
#X obj 44 42 r b_data;
#X obj 257 39 r c_data;
#X obj 473 42 r p_data;
#X text 31 15 All bird data;
#X text 238 13 All clouds data;
#X text 458 10 Player data;
#X obj 257 63 print cloud;
#X obj 44 66 print bird;
#X obj 473 66 print player;
#X obj 38 259 print bird_onoff;
#X obj 267 255 print cloud_collision;
#X obj 426 308 print player1_pos;
#X obj 524 273 print player1_pos;
#X connect 0 0 17 0;
#X connect 1 0 17 0;
#X connect 2 0 19 0;
#X connect 3 0 20 0;
#X connect 6 0 18 0;
#X connect 8 0 15 0;
#X connect 9 0 14 0;
#X connect 10 0 16 0;
#X restore 631 33 pd receive;
#X obj 154 6 r test_bang;
#X msg 32 175 1 \, 0 1000;
#X obj 32 199 line~;
#X obj 36 278 *~;
#X obj 364 219 osc~ 440;
#X obj 152 384 dac~ 1 2 3 4;
#X obj 140 275 *~;
#X obj 422 221 osc~ 550;
#X obj 301 272 *~;
#X obj 488 222 osc~ 770;
#X obj 461 268 *~;
#X obj 559 223 osc~ 770;
#X obj 154 28 t b b;
#X obj 417 50 random 40;
#X obj 417 74 + 60;
#X obj 417 98 mtof;
#X obj 417 122 expr $f1 \; $f1*3 \; $f1*5 \; $f1*7, f 10;
#X obj 32 223 lop~ 100;
#X obj 38 27 bng 15 250 50 0 empty empty empty 17 7 0 10 -262144 -1
-1;
#X msg 110 175 1 \, 0 1000;
#X obj 110 199 line~;
#X obj 110 223 lop~ 100;
#X msg 192 170 1 \, 0 1000;
#X obj 192 194 line~;
#X obj 192 218 lop~ 100;
#X msg 270 170 1 \, 0 1000;
#X obj 270 194 line~;
#X obj 270 218 lop~ 100;
#X msg 151 49 0 \, 4 1000;
#X obj 151 73 line;
#X obj 151 117 sel 0 1 2 3;
#X obj 151 95 int;
#X obj 94 331 *~ 0.4;
#X obj 159 329 *~ 0.4;
#X obj 253 328 *~ 0.4;
#X obj 347 326 *~ 0.4;
#X connect 1 0 13 0;
#X connect 2 0 3 0;
#X connect 3 0 18 0;
#X connect 4 0 33 0;
#X connect 5 0 4 1;
#X connect 7 0 34 0;
#X connect 8 0 7 1;
#X connect 9 0 35 0;
#X connect 10 0 9 1;
#X connect 11 0 36 0;
#X connect 12 0 11 1;
#X connect 13 0 29 0;
#X connect 13 1 14 0;
#X connect 14 0 15 0;
#X connect 15 0 16 0;
#X connect 16 0 17 0;
#X connect 17 0 5 0;
#X connect 17 1 8 0;
#X connect 17 2 10 0;
#X connect 17 3 12 0;
#X connect 18 0 4 0;
#X connect 19 0 13 0;
#X connect 20 0 21 0;
#X connect 21 0 22 0;
#X connect 22 0 7 0;
#X connect 23 0 24 0;
#X connect 24 0 25 0;
#X connect 25 0 9 0;
#X connect 26 0 27 0;
#X connect 27 0 28 0;
#X connect 28 0 11 0;
#X connect 29 0 30 0;
#X connect 30 0 32 0;
#X connect 31 0 2 0;
#X connect 31 1 20 0;
#X connect 31 2 23 0;
#X connect 31 3 26 0;
#X connect 32 0 31 0;
#X connect 33 0 6 0;
#X connect 34 0 6 1;
#X connect 35 0 6 2;
#X connect 36 0 6 3;
